<svg xmlns="http://www.w3.org/2000/svg" width="14" height="11" fill="none"><path fill="#405D65" fill-rule="evenodd" d="M12.371.912c-.266.084-.274.091-3.654 3.446l-3.325 3.3-1.505-1.493C2.489 4.78 2.37 4.667 2.212 4.594c-.401-.187-.828-.128-1.147.158a1.012 1.012 0 0 0-.316.916c.062.336.023.292 2.12 2.371 1.836 1.819 1.95 1.927 2.105 1.994.197.085.47.111.651.062.308-.083.176.041 4.118-3.876 4.083-4.059 3.85-3.81 3.912-4.17.086-.498-.229-.983-.737-1.137a1.175 1.175 0 0 0-.547 0Z" clip-rule="evenodd"/></svg>